<svg width="24" height="24" viewBox="0 0 24 24" fill="none" xmlns="http://www.w3.org/2000/svg">
<path fill-rule="evenodd" clip-rule="evenodd" d="M10.8106 17.8965C10.5725 17.6125 10.3153 17.315 10.0369 17.0041C9.60025 16.5165 9.11129 15.9944 8.56439 15.4383C8.01255 14.8766 7.49391 14.3812 7.00849 13.9431C6.69335 13.6598 6.39305 13.4005 6.10547 13.1631C6.74846 11.0094 7.66915 9.50083 9.52889 6.83629C11.3886 4.17175 14.6615 2.3219 14.6615 2.3219C15.3717 3.34009 16.4103 4.58793 17.926 6.07741C19.4246 7.54994 20.6704 8.60135 21.6829 9.35174C21.6829 9.35174 19.8281 12.6049 17.1593 14.4667C14.4905 16.3286 12.9728 17.2549 10.8106 17.8965ZM16.9594 7.03767C17.738 7.81633 17.5006 9.31712 16.428 10.389C15.3561 11.4609 13.8553 11.699 13.0767 10.9204C12.298 10.1417 12.5354 8.64091 13.608 7.56902C14.6799 6.49642 16.18 6.2583 16.9594 7.03767Z" fill="#257DC1"/>
<path fill-rule="evenodd" clip-rule="evenodd" d="M23.8716 0.127923C23.7734 0.0325333 23.6469 0.0007369 23.5 3.03123e-05C21.8762 -0.00420921 18.2896 0.435288 15.5332 1.93113C16.102 2.79105 17.306 4.14063 18.5828 5.41673C19.8596 6.69354 21.2092 7.89756 22.0684 8.46636C23.565 5.71067 24.0045 2.12403 23.9995 0.499588C23.9988 0.352618 23.967 0.226845 23.8716 0.127923Z" fill="#257DC1"/>
<path fill-rule="evenodd" clip-rule="evenodd" d="M11.0977 18.6858C11.0977 18.6858 11.6608 19.6877 11.8883 21.3758C12.1158 23.0638 11.7138 23.9866 11.7138 23.9866C11.7138 23.9866 13.6541 23.8905 15.552 21.4401C17.4499 18.9903 16.6013 15.8213 16.6013 15.8213C16.6013 15.8213 14.62 17.1136 14.0964 17.3701C13.5714 17.6266 12.1314 18.3975 11.0977 18.6858Z" fill="#257DC1"/>
<path fill-rule="evenodd" clip-rule="evenodd" d="M5.32671 15.2079L8.79959 18.6807C9.0907 18.9719 9.59945 18.9401 9.93013 18.6101L10.0658 18.4744C9.47579 17.7784 8.76002 16.992 7.89021 16.1066C7.01545 15.2163 6.23821 14.4999 5.55211 13.9219L5.39666 14.0773C5.06669 14.4073 5.03489 14.916 5.32671 15.2079Z" fill="#257DC1"/>
<path fill-rule="evenodd" clip-rule="evenodd" d="M7.91068 18.8475L8.32828 19.2651L3.2041 22.8404L7.20127 18.8433C7.39629 18.649 7.71425 18.6511 7.91068 18.8475Z" fill="#257DC1"/>
<path fill-rule="evenodd" clip-rule="evenodd" d="M4.6017 15.5378L5.01929 15.9554C5.21573 16.1519 5.21784 16.4705 5.02353 16.6641L1.02637 20.6613L4.6017 15.5378Z" fill="#257DC1"/>
<path fill-rule="evenodd" clip-rule="evenodd" d="M1.35618 22.2795L1.58724 22.5105C1.67627 22.5996 1.86422 22.5572 2.00483 22.4166L6.48601 17.9354C6.62662 17.7948 6.66902 17.6068 6.57999 17.5178L6.34893 17.2867C6.2599 17.1977 6.07195 17.2401 5.93134 17.3807L1.45016 21.8619C1.30955 22.0025 1.26715 22.1904 1.35618 22.2795Z" fill="#257DC1"/>
<path fill-rule="evenodd" clip-rule="evenodd" d="M5.30082 12.8889C5.30082 12.8889 4.29959 12.3258 2.61084 12.0983C0.922804 11.8707 0 12.2735 0 12.2735C0 12.2735 0.096096 10.3332 2.54654 8.43531C4.99699 6.53742 8.16533 7.38603 8.16533 7.38603C8.16533 7.38603 6.87298 9.3673 6.61649 9.89088C6.36 10.4145 5.58911 11.8552 5.30082 12.8889Z" fill="#257DC1"/>
</svg>
