<svg width="28" height="28" viewBox="0 0 28 28" fill="none" xmlns="http://www.w3.org/2000/svg">
<g>
<path fill-rule="evenodd" clip-rule="evenodd" d="M13.0069 14.9144C12.8085 14.6777 12.5941 14.4298 12.3621 14.1707C11.9983 13.7644 11.5908 13.3293 11.135 12.8659C10.6752 12.3978 10.243 11.985 9.83845 11.6199C9.57584 11.3838 9.32559 11.1677 9.08594 10.9699C9.62177 9.17513 10.389 7.91799 11.9388 5.69754C13.4886 3.47709 16.216 1.93555 16.216 1.93555C16.8078 2.78404 17.6733 3.8239 18.9364 5.06514C20.1853 6.29225 21.2233 7.16842 22.0671 7.79375C22.0671 7.79375 20.5215 10.5047 18.2975 12.0562C16.0735 13.6078 14.8087 14.3797 13.0069 14.9144ZM18.1308 5.86535C18.7797 6.51424 18.5819 7.7649 17.6881 8.65814C16.7948 9.55138 15.5441 9.74982 14.8953 9.10094C14.2464 8.45205 14.4442 7.20139 15.3381 6.30815C16.2313 5.41431 17.4814 5.21588 18.1308 5.86535Z" fill="white"/>
<path fill-rule="evenodd" clip-rule="evenodd" d="M23.894 0.106602C23.8122 0.0271111 23.7068 0.000614083 23.5843 2.52603e-05C22.2312 -0.00350768 19.2423 0.36274 16.9453 1.60928C17.4193 2.32588 18.4227 3.45053 19.4867 4.51394C20.5507 5.57795 21.6753 6.5813 22.3913 7.0553C23.6385 4.75889 24.0047 1.77003 24.0006 0.416323C24 0.293848 23.9735 0.189037 23.894 0.106602Z" fill="white"/>
<path fill-rule="evenodd" clip-rule="evenodd" d="M13.25 15.5707C13.25 15.5707 13.7193 16.4056 13.9089 17.8123C14.0985 19.219 13.7635 19.988 13.7635 19.988C13.7635 19.988 15.3804 19.908 16.9619 17.8659C18.5435 15.8245 17.8363 13.1836 17.8363 13.1836C17.8363 13.1836 16.1853 14.2606 15.749 14.4743C15.3115 14.688 14.1114 15.3304 13.25 15.5707Z" fill="white"/>
<path fill-rule="evenodd" clip-rule="evenodd" d="M8.4399 12.6732L11.334 15.5673C11.5766 15.8099 12.0005 15.7834 12.2761 15.5084L12.3891 15.3953C11.8975 14.8154 11.301 14.16 10.5762 13.4222C9.84719 12.6803 9.19948 12.0832 8.62774 11.6016L8.4982 11.7311C8.22321 12.0061 8.19672 12.43 8.4399 12.6732Z" fill="white"/>
<path fill-rule="evenodd" clip-rule="evenodd" d="M10.5901 15.7059L10.9381 16.0539L6.66797 19.0334L9.99894 15.7024C10.1615 15.5405 10.4264 15.5422 10.5901 15.7059Z" fill="white"/>
<path fill-rule="evenodd" clip-rule="evenodd" d="M7.83491 12.9473L8.18291 13.2953C8.3466 13.459 8.34837 13.7245 8.18644 13.8858L4.85547 17.2168L7.83491 12.9473Z" fill="white"/>
<path fill-rule="evenodd" clip-rule="evenodd" d="M5.12869 18.5667L5.32123 18.7592C5.39543 18.8334 5.55205 18.7981 5.66923 18.6809L9.40354 14.9466C9.52072 14.8294 9.55605 14.6728 9.48186 14.5986L9.28931 14.406C9.21512 14.3318 9.05849 14.3672 8.94132 14.4843L5.207 18.2187C5.08983 18.3358 5.0545 18.4925 5.12869 18.5667Z" fill="white"/>
<path fill-rule="evenodd" clip-rule="evenodd" d="M8.41735 10.7414C8.41735 10.7414 7.58299 10.2721 6.1757 10.0825C4.769 9.89292 4 10.2285 4 10.2285C4 10.2285 4.08008 8.61164 6.12212 7.03006C8.16416 5.44848 10.8044 6.15566 10.8044 6.15566C10.8044 6.15566 9.72748 7.80672 9.51374 8.24303C9.3 8.67935 8.65759 9.87996 8.41735 10.7414Z" fill="white"/>
</g>
</svg>
